<svg xmlns="http://www.w3.org/2000/svg" version="1.1" xmlns:xlink="http://www.w3.org/1999/xlink" width="512" height="512" x="0" y="0" viewBox="0 0 24 24" style="enable-background:new 0 0 512 512" xml:space="preserve" class="">
  <g>
    <path d="M18 15a3.989 3.989 0 0 0-3.222 1.65l-5.015-3.343a3.722 3.722 0 0 0 0-2.614l5.015-3.343A3.985 3.985 0 1 0 14 5a3.883 3.883 0 0 0 .044.435L8.653 9.029a4 4 0 1 0 0 5.942l5.391 3.594A3.883 3.883 0 0 0 14 19a4 4 0 1 0 4-4z" data-name="Layer 2" fill="#fff" opacity="1" data-original="#000000"></path>
  </g>
</svg>
