<svg xmlns="http://www.w3.org/2000/svg" version="1.1" xmlns:xlink="http://www.w3.org/1999/xlink" width="512" height="512" x="0" y="0" viewBox="0 0 24 24" style="enable-background:new 0 0 512 512" xml:space="preserve" class=""><g><path d="M14.164 19.751a.5.5 0 0 1 0 .5 2.5 2.5 0 0 1-4.324 0 .5.5 0 0 1 .432-.752h3.46a.5.5 0 0 1 .432.252zm6.227-2.063A9.481 9.481 0 0 1 18.5 12.5V8.995a6.495 6.495 0 0 0-12.99 0V12.5a9.481 9.481 0 0 1-1.9 5.188.5.5 0 0 0 .39.812h16a.5.5 0 0 0 .391-.812z" fill="" opacity="1" data-original="#000000"></path></g></svg>
