<svg xmlns="http://www.w3.org/2000/svg" version="1.1" xmlns:xlink="http://www.w3.org/1999/xlink" width="512" height="512" x="0" y="0" viewBox="0 0 32 32" style="enable-background:new 0 0 512 512" xml:space="preserve" class=""><g><path d="M16 20c-.6 0-1-.4-1-1 .1-1.3.8-2.4 1.8-3.2.6-.6 1.2-1.2 1.2-1.8 0-1.1-.9-2-2-2s-2 .9-2 2c0 .6-.4 1-1 1s-1-.4-1-1c0-2.2 1.8-4 4-4s4 1.8 4 4c-.1 1.3-.8 2.4-1.8 3.2-.6.6-1.2 1.2-1.2 1.8s-.4 1-1 1z" fill="" opacity="1" data-original="#000000"></path><circle cx="16" cy="22" r="1" fill="" opacity="1" data-original="#000000"></circle><path d="M4.4 28.8c-.3-.2-.4-.6-.4-1l.9-5.1C1.2 16.6 3.2 8.6 9.3 5s14.1-1.7 17.8 4.4 1.7 14.1-4.4 17.8c-4 2.4-9.1 2.5-13.1.1L5.5 29c-.5.1-.8 0-1.1-.2zm5.2-3.6c.2 0 .4.1.5.2 5.2 3.3 12 1.7 15.2-3.4S27 10 21.9 6.8 10 4.9 6.7 10.1c-2.3 3.6-2.3 8.3 0 11.9.1.2.2.5.1.7l-.6 3.7 2.9-1.2z" fill="" opacity="1" data-original="#000000"></path></g></svg>
