<svg xmlns="http://www.w3.org/2000/svg" version="1.1" xmlns:xlink="http://www.w3.org/1999/xlink" width="512" height="512" x="0" y="0" viewBox="0 0 64 64" style="enable-background:new 0 0 512 512" xml:space="preserve" class=""><g><path d="M59.412 10.032A32.825 32.825 0 0 0 38.334 8.28c-1.332 2.27-3.183 4.342-3.78 6.897a.977.977 0 0 1-1.641.483.99.99 0 0 1-.27-.89c.391-2.102 1.719-3.817 2.815-5.628a35.718 35.718 0 0 0-6.194 2.897c-.407.82-1 2.09-1.531 3.31-1.278 2.851-1.88 4.789-1.504 7.712a.968.968 0 0 1-.834 1.096c-2.119.266-1.01-5.362-.656-6.531.228-.725.807-2.146 1.442-3.566-3.045 2.365-5.358 4.241-6.512 6.138L18.09 28.62a4.767 4.767 0 0 1-.607-2.414.973.973 0 0 0-1.614-.745 17.075 17.075 0 0 0-3.731 4.6 17.85 17.85 0 0 0-2.063 10.285 15.826 15.826 0 0 0 .608 4.11.95.95 0 0 0-.35.302A103.345 103.345 0 0 0 4.108 55.29a.975.975 0 1 0 1.735.892 103.712 103.712 0 0 1 35.202-39.026.975.975 0 0 1 1.083 1.621 104.072 104.072 0 0 0-29.225 29.1 18.386 18.386 0 0 0 12.967-.027.982.982 0 0 0 .07-1.793 5.633 5.633 0 0 1-1.815-1.345c2.957.728 6.58.568 9.167-1.69 2.566-2.056 7.277-5.939 10.036-8.712a.982.982 0 0 0-.773-1.655 7.738 7.738 0 0 1-3.4-.531 8.1 8.1 0 0 1-1.29-.67 15.49 15.49 0 0 0 6.973-.668c2.639-.953 4.437-2.99 6.111-5.201a14.468 14.468 0 0 1-2.917.504 33.32 33.32 0 0 1-5.704-.283.978.978 0 0 1 .269-1.938 25.55 25.55 0 0 0 6.283.172c1.209-.239 2.634-.61 4.07-.98 2.033-2.682 3.48-4.021 5.366-7.71a25.858 25.858 0 0 0 1.641-4.139.973.973 0 0 0-.545-1.18z" fill="" opacity="1" data-original="#000000"></path></g></svg>
