<svg xmlns="http://www.w3.org/2000/svg" version="1.1" xmlns:xlink="http://www.w3.org/1999/xlink" width="512" height="512" x="0" y="0" viewBox="0 0 100 100" style="enable-background:new 0 0 512 512" xml:space="preserve"><g><path d="M96.258 76.556 69.703 50l26.555-26.556a4.24 4.24 0 0 0 0-5.996L82.552 3.742a4.24 4.24 0 0 0-5.996 0L50 30.297 23.444 3.742a4.24 4.24 0 0 0-5.996 0L3.742 17.448a4.24 4.24 0 0 0 0 5.996L30.297 50 3.742 76.556a4.24 4.24 0 0 0 0 5.996l13.706 13.706a4.24 4.24 0 0 0 5.996 0L50 69.703l26.556 26.555a4.24 4.24 0 0 0 5.996 0l13.706-13.706a4.24 4.24 0 0 0 0-5.996z" fill="#436499" opacity="1" data-original="#000000"></path></g></svg>
