<svg xmlns="http://www.w3.org/2000/svg" version="1.1" xmlns:xlink="http://www.w3.org/1999/xlink" width="512" height="512" x="0" y="0" viewBox="0 0 469.333 469.333" style="enable-background:new 0 0 512 512" xml:space="preserve"><g><circle cx="234.667" cy="53.333" r="53.333" fill="" opacity="1" data-original="#000000"></circle><path d="M161.521 213.333h146.292c12.604 0 22.854-11.063 22.854-24.667v-6.833c0-17.823-8.823-34.104-23.042-42.49-17.031-10.042-43.51-22.01-72.958-22.01s-55.927 11.969-72.958 22.01c-14.219 8.385-23.042 24.667-23.042 42.49v6.833c0 13.605 10.25 24.667 22.854 24.667z" fill="" opacity="1" data-original="#000000"></path><circle cx="96" cy="309.333" r="53.333" fill="" opacity="1" data-original="#000000"></circle><path d="M168.958 395.344c-17.031-10.042-43.51-22.01-72.958-22.01s-55.927 11.969-72.958 22.01C8.823 403.729 0 420.01 0 437.833v6.833c0 13.604 10.25 24.667 22.854 24.667h146.292c12.604 0 22.854-11.063 22.854-24.667v-6.833c0-17.823-8.823-34.104-23.042-42.489z" fill="" opacity="1" data-original="#000000"></path><circle cx="373.333" cy="309.333" r="53.333" fill="" opacity="1" data-original="#000000"></circle><path d="M446.292 395.344c-17.031-10.042-43.51-22.01-72.958-22.01s-55.927 11.969-72.958 22.01c-14.219 8.385-23.042 24.667-23.042 42.49v6.833c0 13.604 10.25 24.667 22.854 24.667H446.48c12.604 0 22.854-11.063 22.854-24.667v-6.833c-.001-17.824-8.824-34.105-23.042-42.49zM287.99 362.667c3.135 0 6.229-1.375 8.344-4 3.677-4.604 2.927-11.313-1.667-15l-49.333-39.466v-58.867c0-5.896-4.771-10.667-10.667-10.667S224 239.437 224 245.333v58.875l-49.333 39.458c-4.594 3.688-5.344 10.396-1.667 15 2.115 2.625 5.208 4 8.344 4 2.333 0 4.688-.76 6.656-2.333L234.667 323l46.666 37.333a10.631 10.631 0 0 0 6.657 2.334z" fill="" opacity="1" data-original="#000000"></path></g></svg>
